# xmcd
#
# Track frame offsets: 
#        150
#        32355
#        58473
#        82216
#        102771
#        117137
#        188039
#        256660
#        285182
#        311417
#
# Disc length: 4689 seconds
#
# Revision: 0
# Processed by: cddbd v1.5.2PL0 Copyright (c) Steve Scherf et al.
# Submitted via: ExactAudioCopy v0.99pb5
#
DISCID=7b124f0a
DTITLE=Caravan  - The World Is Yours - An Anthology 1968-1976 - Disc 4
DYEAR=1900
DGENRE=
TTITLE0=Be Alright - Chance Of A Lifetime
TTITLE1=The Show Of Our Lives
TTITLE2=Keeping Back My Love
TTITLE3=No Backstage Pass
TTITLE4=Stuck In A Hole
TTITLE5=The Love In Your Eye
TTITLE6=The Dabsong Conshirtoe
TTITLE7=Here I Am
TTITLE8=A Very Smelly, Grubby Oik - Bobbing Wide
TTITLE9=All The Way
EXTD=
EXTT0=
EXTT1=
EXTT2=
EXTT3=
EXTT4=
EXTT5=
EXTT6=
EXTT7=
EXTT8=
EXTT9=
PLAYORDER=
